<?xml version="1.0" encoding="UTF-8"?>
<svg id="Livello_2" data-name="Livello 2" xmlns="http://www.w3.org/2000/svg" viewBox="0 0 907.5 394.09">
  <defs>
    <style>
      .cls-1 {
        fill: none;
      }
    </style>
  </defs>
  <g id="Livello_1-2" data-name="Livello 1">
    <g>
      <g>
        <path d="M142.71,81.81h-25.71L15.49,312.28h30.91l23.75-56.74h108.29l19.39-44.02-55.12-129.71ZM80.89,230.19l47.83-113.22h.65l45.55,113.22h-94.03ZM216.54,255.54h-8.43l-11.47,27.39,12.12,29.35h31.89l-24.11-56.74Z"/>
        <path d="M185.33,255.54h-6.89l-24.99,56.74h30.91l12.29-29.35-11.31-27.39ZM280.67,81.81h-25.71l-57.13,129.71,18.71,44.02h106.75l23.43,56.74h31.89l-97.93-230.47ZM218.84,230.19l47.83-113.22h.65l45.55,113.22h-94.03Z"/>
        <polygon class="cls-1" points="216.54 255.54 208.11 255.54 196.64 282.93 185.33 255.54 178.44 255.54 197.83 211.52 216.54 255.54"/>
      </g>
      <rect class="cls-1" width="394.09" height="394.09"/>
    </g>
    <g>
      <path d="M360.45,146.77l-11.01,30.08h-14.16l36.18-95.65h16.36l36.18,95.65h-14.63l-11.33-30.08h-37.59ZM395.37,137.12l-10.54-27.53c-2.36-6.24-3.93-11.92-5.51-17.45h-.31c-1.57,5.53-3.15,11.49-5.35,17.31l-10.38,27.67h32.09Z"/>
      <path d="M439.41,81.21h13.84v85.29h45.3v10.36h-59.14v-95.65Z"/>
      <path d="M568.54,132.02h-41.05v34.48h45.93v10.36h-59.77v-95.65h57.41v10.36h-43.57v30.23h41.05v10.22Z"/>
      <path d="M649.23,176.86l-13.68-21.14c-5.51-8.09-8.81-13.34-12.11-18.87h-.31c-2.99,5.53-6.13,10.64-11.48,19.02l-12.74,21h-15.73l32.4-48.39-31.14-47.26h15.89l14,22.42c3.93,6.24,6.92,11.07,9.75,16.18h.47c2.99-5.68,5.66-10.08,9.59-16.18l14.31-22.42h15.89l-32.25,46.55,33.03,49.1h-15.89Z"/>
      <path d="M427.14,278.47l-11.01,30.08h-14.16l36.18-95.65h16.36l36.18,95.65h-14.63l-11.33-30.08h-37.59ZM462.05,268.82l-10.54-27.53c-2.36-6.24-3.93-11.92-5.51-17.45h-.31c-1.57,5.53-3.15,11.49-5.35,17.31l-10.38,27.67h32.09Z"/>
      <path d="M506.25,214.18c6.92-1.14,16.99-1.99,26.27-1.99,14.63,0,24.22,2.55,30.67,7.81,5.19,4.26,8.34,10.79,8.34,18.31,0,12.49-8.81,20.86-19.82,24.27v.43c8.02,2.55,12.9,9.37,15.41,19.3,3.46,13.34,5.98,22.56,8.18,26.25h-14.16c-1.73-2.84-4.09-10.93-6.92-22.85-3.15-13.2-8.97-18.16-21.39-18.59h-12.9v41.44h-13.68v-94.37ZM519.94,257.75h14c14.63,0,23.91-7.24,23.91-18.16,0-12.35-9.91-17.74-24.38-17.74-6.61,0-11.17.43-13.53.99v34.91Z"/>
      <path d="M672.19,304.29c-6.13,2.13-18.4,5.25-32.72,5.25-16.04,0-29.26-3.69-39.64-12.63-9.12-7.95-14.79-20.72-14.79-35.62,0-28.52,21.86-49.39,57.41-49.39,12.27,0,22.02,2.41,26.58,4.4l-3.46,10.08c-5.66-2.41-12.74-4.12-23.44-4.12-25.8,0-42.63,14.48-42.63,38.46s16.04,38.6,40.9,38.6c8.97,0,15.1-1.14,18.25-2.55v-28.52h-21.39v-9.93h34.92v45.98Z"/>
      <path d="M747.69,263.71h-41.05v34.48h45.93v10.36h-59.77v-95.65h57.41v10.36h-43.57v30.23h41.05v10.22Z"/>
      <path d="M768.61,293.51c6.13,3.55,14.94,6.24,24.38,6.24,14,0,22.18-6.67,22.18-16.32,0-8.8-5.66-14.05-19.98-18.87-17.3-5.68-28-13.91-28-27.25,0-14.9,13.68-25.97,34.29-25.97,10.7,0,18.72,2.27,23.28,4.68l-3.78,10.08c-3.3-1.84-10.38-4.54-19.98-4.54-14.47,0-19.98,7.81-19.98,14.33,0,8.94,6.45,13.34,21.08,18.45,17.93,6.24,26.9,14.05,26.9,28.1,0,14.76-11.95,27.67-36.96,27.67-10.22,0-21.39-2.84-27.05-6.24l3.62-10.36Z"/>
      <path d="M902.62,263.71h-41.05v34.48h45.93v10.36h-59.77v-95.65h57.41v10.36h-43.57v30.23h41.05v10.22Z"/>
    </g>
  </g>
</svg>